<?xml version="1.0" encoding="UTF-8" standalone="no"?>
<!-- Generator: Adobe Illustrator 24.2.1, SVG Export Plug-In . SVG Version: 6.00 Build 0)  -->

<svg
		version="1.1"
		id="Livello_1"
		x="0px"
		y="0px"
		viewBox="0 0 2165.6001 758"
		xml:space="preserve"
		sodipodi:docname="Logo_Bianco_Lab_2022.svg"
		width="2165.6001"
		height="758"
		inkscape:version="1.2.1 (9c6d41e410, 2022-07-14)"
		xmlns:inkscape="http://www.inkscape.org/namespaces/inkscape"
		xmlns:sodipodi="http://sodipodi.sourceforge.net/DTD/sodipodi-0.dtd"
		xmlns:xlink="http://www.w3.org/1999/xlink"
		xmlns="http://www.w3.org/2000/svg"
		xmlns:svg="http://www.w3.org/2000/svg"><defs
   id="defs193" />
	<sodipodi:namedview
			id="namedview191"
			pagecolor="#ffffff"
			bordercolor="#000000"
			borderopacity="0.25"
			inkscape:showpageshadow="2"
			inkscape:pageopacity="0.0"
			inkscape:pagecheckerboard="0"
			inkscape:deskcolor="#d1d1d1"
			showgrid="false"
			inkscape:zoom="0.30063694"
			inkscape:cx="1087.6907"
			inkscape:cy="380.85805"
			inkscape:window-width="1700"
			inkscape:window-height="1360"
			inkscape:window-x="1701"
			inkscape:window-y="4"
			inkscape:window-maximized="0"
			inkscape:current-layer="Livello_1"/>
	<style
			type="text/css"
			id="style2">
	.st0{fill:none;stroke:#FFFFFF;stroke-width:3;stroke-miterlimit:10;}
	.st1{fill:#FFFFFF;}
	.st2{clip-path:url(#SVGID_8_);fill:#FFFFFF;}
	.st3{fill-rule:evenodd;clip-rule:evenodd;fill:#FFFFFF;}
</style>
	<circle
			class="st0"
			cx="379"
			cy="379"
			r="377.5"
			id="circle4"/>
	<g
			id="g8"
			transform="translate(-14.399994,-13.5)">

		<rect
				x="196.5"
				y="164"
				transform="matrix(0.5008,-0.8656,0.8656,0.5008,-109.533,290.8003)"
				class="st1"
				width="1.8"
				height="152.8"
				id="rect6"/>
</g>
	<g
			id="g12"
			transform="translate(-14.399994,-13.5)">

		<rect
				x="-1.1"
				y="279.60001"
				transform="matrix(0.4908,-0.8712,0.8712,0.4908,-109.8583,372.9413)"
				class="st1"
				width="530.40002"
				height="1.8"
				id="rect10"/>
</g>
	<g
			id="g16"
			transform="translate(-14.399994,-13.5)">

		<rect
				x="524.09998"
				y="15.1"
				transform="matrix(0.8706,-0.4919,0.4919,0.8706,-70.0956,294.5364)"
				class="st1"
				width="1.8"
				height="531"
				id="rect14"/>
</g>
	<g
			id="g20"
			transform="translate(-14.399994,-13.5)">
	<rect
			x="134"
			y="510.60001"
			class="st1"
			width="521.70001"
			height="1.8"
			id="rect18"/>
</g>
	<g
			id="g24"
			transform="translate(-14.399994,-13.5)">

		<rect
				x="524.09998"
				y="-23.799999"
				transform="matrix(0.5013,-0.8653,0.8653,0.5013,153.002,516.8996)"
				class="st1"
				width="1.8"
				height="299"
				id="rect22"/>
</g>
	<g
			id="g28"
			transform="translate(-14.399994,-13.5)">

		<rect
				x="513.5"
				y="240.60001"
				transform="matrix(0.8667,-0.4989,0.4989,0.8667,-42.2399,324.9194)"
				class="st1"
				width="146.39999"
				height="1.7"
				id="rect26"/>
</g>
	<g
			id="g32"
			transform="translate(-14.399994,-13.5)">

		<rect
				x="376.5"
				y="584.29999"
				transform="matrix(0.8705,-0.4922,0.4922,0.8705,-219.9171,334.518)"
				class="st1"
				width="298.39999"
				height="1.8"
				id="rect30"/>
</g>
	<ellipse
			class="st1"
			cx="641.09998"
			cy="188.5"
			rx="14.2"
			ry="14.3"
			id="ellipse34"/>
	<ellipse
			class="st1"
			cx="379.89999"
			cy="645.09998"
			rx="14.2"
			ry="14.3"
			id="ellipse36"/>
	<circle
			class="st1"
			cx="175.3"
			cy="154.60001"
			id="ellipse38"
			r="7.0999999"/>
	<circle
			class="st1"
			cx="224.8"
			cy="125.89999"
			id="ellipse40"
			r="7.0999999"/>
	<circle
			class="st1"
			cx="274.60001"
			cy="97.400002"
			id="ellipse42"
			r="7.0999999"/>
	<circle
			class="st1"
			cx="323.39999"
			cy="68.699997"
			id="ellipse44"
			r="7.0999999"/>
	<circle
			class="st1"
			cx="642.90002"
			cy="424.10001"
			id="ellipse46"
			r="7.0999999"/>
	<circle
			class="st1"
			cx="642.90002"
			cy="365.60001"
			id="ellipse48"
			r="7.0999999"/>
	<circle
			class="st1"
			cx="642.90002"
			cy="307.5"
			id="ellipse50"
			r="7.0999999"/>
	<circle
			class="st1"
			cx="642.90002"
			cy="252.29999"
			id="ellipse52"
			r="7.0999999"/>
	<g
			id="g64"
			transform="translate(-14.399994,-13.5)">
	<defs
			id="defs55">
		<path
				id="SVGID_7_"
				d="m 346.4,437.3 c -0.8,-0.8 -1.3,-0.9 -2,-0.2 -1.4,1.3 -2.6,0.4 -2.8,-2.2 -0.1,-1.2 -0.5,-2.2 -1,-2.2 -0.4,0 -0.6,0.3 -0.4,0.6 0.7,1 -0.7,2.8 -2,2.4 -1.4,-0.4 -2.3,-6.5 -0.9,-6.6 0.4,0 0.6,-2.7 0.3,-6.5 -0.4,-5.9 -0.3,-6.7 1.6,-9.7 2.1,-3.3 2,-5.7 -0.1,-5.5 -1.5,0.1 -2.3,-2 -1.3,-3.4 0.6,-0.9 0.6,-2.7 0,-6.2 -1.4,-8.2 -1.9,-9.3 -4.2,-10.1 -1.9,-0.6 -2.2,-1.1 -2.4,-4.2 -0.2,-2.5 0.1,-3.8 1,-4.4 1.2,-0.8 1.2,-1 0,-1.7 -2,-1.2 -0.1,-5.3 2.6,-5.8 2.4,-0.5 2.8,0.7 0.8,2.7 -2.1,2.1 -1.6,3.7 1.4,4.6 1.9,0.5 3.6,0.5 5.8,-0.2 3.6,-1.1 3.3,-0.8 4.6,-3.9 0.6,-1.5 2.7,-3.5 5.4,-5.2 l 4.4,-2.8 3,2.9 c 1.6,1.6 3,3.4 3.1,4 0,0.6 0.8,1.1 1.6,1 1.1,-0.1 1.6,0.4 1.7,1.8 0.1,1.4 -0.3,2 -1.4,2 -0.8,0.1 -1.5,0.5 -1.5,0.9 0,0.4 0.9,0.7 1.9,0.6 1.9,-0.1 2.1,0.1 3.7,7.2 0.6,2.8 0.4,3.6 -1.4,6.3 -2.5,3.7 -2.8,5.7 -1,7.9 1.2,1.5 1.3,2.1 0.1,7.7 -1,4.5 -1.1,6.8 -0.5,9.1 0.7,2.5 0.6,3.3 -0.4,4.3 -0.7,0.7 -1.1,1.8 -0.9,2.6 0.2,0.7 -0.2,1.6 -0.8,1.9 -0.6,0.3 -1.1,1.4 -1,2.4 0.2,2.5 -1.4,2.4 -4.2,-0.2 -3.9,-3.5 -6.7,-2.2 -6.3,2.9 0.2,2.4 -0.2,3.1 -2.3,4.6 -2.8,2 -2.8,2 -4.2,0.6 z M 517.5,459 c -1.5,-0.5 -1,-8 0.8,-11.5 1.1,-2.1 1.2,-3.9 0.8,-7.6 -0.7,-5.5 0.4,-7.3 4.5,-7.6 2.8,-0.2 3.5,-3.9 1.2,-6.2 -0.9,-0.8 -2.3,-4 -3.3,-7.1 -1.2,-3.9 -2.4,-6 -3.9,-7 -1.6,-1.1 -2.6,-3.1 -4,-7.8 -2.7,-9.2 -5.3,-12.1 -7.1,-8 -0.4,0.9 -1.2,1.7 -1.7,1.7 -1.3,0.1 -4.8,-2.5 -4.9,-3.6 0,-0.5 -1.6,-1.2 -3.6,-1.6 -4.8,-1 -4.9,-1.2 -3.9,-5 0.8,-2.9 0.7,-3.6 -1,-6.5 -1.8,-3.1 -1.9,-3.2 -4.7,-2.4 -1.6,0.5 -4.2,1.2 -5.9,1.6 l -3,0.8 v -3.5 -3.5 h -3.5 c -2.9,0 -3.7,-0.4 -4.6,-2.1 -0.6,-1.2 -2.7,-3.9 -4.5,-6.2 -3.4,-4 -3.5,-4.1 -6.5,-3.3 -1.7,0.4 -3.6,0.4 -4.1,0 -1.2,-0.8 -5.4,0.1 -5.4,1.1 0,0.4 -0.8,0.8 -1.9,0.9 -1.5,0.1 -2.5,-0.7 -4.1,-3 -1.7,-2.5 -2.6,-3.2 -5.1,-3.4 -2.5,-0.2 -3.9,-1.2 -7.9,-5.4 -3.1,-3.3 -4.9,-5.9 -5,-7.3 -0.1,-1.4 -0.6,-2.1 -1.4,-2 -2.3,0.2 -8.7,-4.3 -10.6,-7.3 -1.3,-2.2 -2.7,-3.3 -5.3,-4.1 -2.4,-0.8 -3.6,-0.8 -4,-0.2 -0.3,0.6 -1.2,0.7 -3.1,0.2 -2.7,-0.7 -3.5,-2.6 -2,-4.4 1.1,-1.3 -3.3,-6.3 -5.9,-6.8 -1.3,-0.2 -2.1,-1.1 -2.6,-3 -0.6,-2.2 -1.2,-2.8 -3.3,-3.2 -2.6,-0.5 -2.6,-0.5 -3.5,-6.5 -0.5,-3.8 -1.4,-6.8 -2.4,-8.1 -0.9,-1.1 -1.7,-3.3 -1.8,-4.9 -0.3,-4.5 -2.3,-10.6 -4,-11.9 -0.8,-0.6 -3.1,-1.6 -5.1,-2.2 -2,-0.5 -5.1,-1.8 -7,-2.8 -1.9,-1 -5.8,-3.1 -8.6,-4.6 -2.8,-1.5 -6.6,-2.8 -8.4,-3 -3.2,-0.3 -3.5,-0.1 -7,4.2 -2,2.5 -4.3,5.5 -5.2,6.8 -2.4,3.6 -7.3,6.1 -12.8,6.5 l -4.8,0.3 0.4,-2.7 c 0.2,-1.5 1,-3.8 1.7,-5 1.7,-3.1 0.8,-3.7 -5.9,-3.9 l -5.6,-0.2 -3.1,-6.3 c -2.8,-5.6 -3,-6.4 -1.9,-7.3 1.5,-1.3 2.2,-7 0.8,-6.9 -0.5,0 -1.6,-1.2 -2.5,-2.7 -0.8,-1.5 -2.2,-2.9 -3,-3.1 -1.1,-0.3 -1.6,-1.2 -1.7,-3.2 l -0.2,-2.9 3.6,0.3 c 3.2,0.2 3.8,0 5.5,-1.9 1.1,-1.2 2.3,-2.2 2.8,-2.3 2.1,-0.1 0.4,-5.1 -3.1,-9.2 l -3.6,-4.3 2.5,-2.9 c 2.1,-2.5 3,-3 6.4,-3.2 2.2,-0.2 5.5,-0.8 7.5,-1.4 2.5,-0.8 4.1,-1 5.5,-0.5 2.8,1.1 6.3,-1.8 7.3,-6 0.4,-1.8 1.4,-3.7 2.3,-4.3 0.8,-0.5 1.5,-1.7 1.4,-2.6 -0.1,-1.9 1.3,-2.1 3.5,-0.6 1.2,0.8 1.5,1.7 1.3,3.7 -0.2,2 0.2,3.2 1.4,4.6 l 1.7,1.9 1.8,-1.9 c 2,-2.2 2.9,-2.4 4.4,-1.2 0.7,0.7 0.8,1.4 0,3.1 -1.1,2.5 -0.2,6.6 1.5,7 0.7,0.2 0.9,-1 0.7,-3.8 -0.2,-3.5 0,-4.3 1.9,-5.9 1.4,-1.2 2.5,-3.1 3,-5.5 0.7,-3.3 1,-3.8 3.1,-3.9 2.1,-0.1 2.3,0.1 2.5,2.8 0.2,2.7 0.4,2.9 2,2.3 1,-0.4 3.1,-1 4.7,-1.3 2.6,-0.6 3.1,-0.4 4.1,1.4 0.6,1.1 1.4,2 1.7,2 1.5,-0.1 1.2,-1.4 -0.9,-4.1 l -2.3,-3 1.9,-2.2 c 1.8,-2.1 2.2,-2.2 4.5,-1.4 3.4,1.2 4.2,0.3 3.9,-4.3 l -0.3,-4 3.4,-0.2 c 2.3,-0.2 4,0.3 5.3,1.4 2.4,1.9 3.8,1 4.9,-3.4 0.7,-2.6 1,-2.8 4.1,-3.1 1.9,-0.1 3.9,0.1 4.4,0.6 0.7,0.6 1.6,0.6 3.4,-0.3 1.8,-0.9 2.7,-1 3.5,-0.4 0.9,0.6 1.6,0.3 2.9,-1.3 2.3,-2.8 8.7,-3.6 8.8,-1.1 0.1,0.9 -1,2.4 -2.4,3.4 l -2.5,1.9 2.2,-0.1 c 1.6,-0.1 2.4,0.3 2.8,1.7 0.3,1 2.4,3.1 4.6,4.5 4,2.6 4.1,2.7 14.3,2.5 5.7,-0.1 10.4,0 10.6,0.3 0.2,0.3 0.2,1.4 0.1,2.6 -0.2,1.5 -1.1,2.6 -3.3,3.8 -3.2,1.7 -3.3,3.1 -0.1,2.8 1.1,-0.1 2.4,0.5 2.9,1.4 1.4,2.3 1.2,3.2 -0.6,3.3 -2.6,0.2 -2.7,2.5 -0.2,4.6 1.2,1 2.3,2.5 2.4,3.3 0.1,0.8 0.8,2 1.7,2.7 1,0.8 1.5,2 1.4,3.3 -0.3,2.6 -1.9,2.7 -3.7,0.3 -1.3,-1.7 -1.8,-1.8 -4.9,-1.2 -1.9,0.4 -4.2,0.4 -5.1,0 -2.3,-1 -3.9,-0.1 -2.3,1.3 0.7,0.6 1.3,1.5 1.3,1.9 0.1,1.1 -7.1,5.1 -8.7,4.9 -0.7,-0.1 -1.7,0.4 -2.2,1 -0.8,1.1 -1.2,1.1 -3.1,0.3 -2.8,-1.2 -3.3,-0.8 -4.2,3.2 -0.7,3 -0.6,3.4 1.1,5 1,1 1.9,2.5 2,3.4 0.1,0.9 0.7,1.9 1.4,2.1 0.8,0.3 1.3,1.5 1.5,3.6 0.2,3.1 -0.6,4.3 -1.8,2.6 -1.2,-1.7 -3.6,1.4 -3.3,4.3 0.3,4.1 2.9,12.6 4.3,14.1 5.8,6.5 7.4,7.8 9.2,7.7 1.2,-0.1 3.1,0.9 5.1,2.8 1.9,1.8 4.7,3.3 7.2,4 5.5,1.4 6.7,2.3 7.7,5.7 0.4,1.5 1.7,4 2.8,5.5 1.3,1.7 2.4,4.6 3,7.9 1.5,8.6 4.5,13.6 11.6,19.5 3.4,2.9 6.6,5.2 7,5.2 0.4,0 2.3,1.1 4.2,2.5 1.9,1.4 3.9,2.6 4.5,2.5 0.5,0 2,0.6 3.3,1.5 2.1,1.4 2.6,1.4 5.4,0.4 2.1,-0.8 4.1,-1 6.5,-0.6 2.5,0.4 4.2,0.2 6.4,-0.8 2.6,-1.1 3.2,-1.1 5.5,0.1 3.3,1.8 3,4 -1,6.9 -4.3,3.2 -3.5,7.9 1.2,7.6 1,-0.1 2.8,0.7 3.8,1.6 1.1,1 4.9,2.5 8.9,3.6 8,2 20.3,7.3 22,9.5 1.4,1.8 7.3,3.5 11,3.2 2.2,-0.2 3,0.2 3.9,2 0.6,1.2 3.2,3.9 5.7,6.1 5.3,4.6 5.9,6.1 5.6,13.2 -0.1,4 -0.6,5.5 -1.7,6.2 -2.2,1.4 -6.3,-1.4 -8.5,-5.6 -1,-1.9 -2.6,-4.5 -3.7,-5.7 -1.8,-2.1 -2.4,-2.3 -6.7,-2 -5.4,0.4 -9.2,-1.1 -10.1,-3.8 -0.5,-1.5 -3.7,-3.4 -5.5,-3.3 -0.8,0.1 -1.9,3.5 -2.4,7.1 -0.2,1.5 -1,2.9 -2,3.4 -1.4,0.7 -1.8,1.8 -2,5.2 -0.1,2.3 -0.9,5.6 -1.8,7.3 -1.5,2.9 -1.5,3.1 -0.1,4.5 0.9,0.9 3.1,1.6 5.5,1.7 2.9,0.2 4.1,0.7 4.5,1.7 0.3,0.8 1.6,1.9 2.9,2.5 2.1,0.9 2.4,1.5 3.2,6.9 0.5,3.2 1.1,6.7 1.3,7.8 0.3,1.8 0,2.1 -5.2,3.5 -7.2,1.9 -8.2,3.4 -7.8,10.4 0.3,5 0.2,5.3 -2.6,8.1 -1.7,1.7 -3.1,4 -3.3,5.4 -0.2,1.4 -1.2,3.6 -2.2,5 -1.6,2.2 -2.4,2.6 -6,2.8 -2.4,-0.1 -4.8,-0.2 -5.3,-0.4 z m -15.1,40.2 c -1,-0.9 -3.1,-1.2 -7,-1.2 -5.5,0 -5.5,0 -7.3,-2.9 -2.2,-3.6 -6.5,-5.6 -12.3,-5.6 -3.9,0 -4.5,-0.3 -6.3,-2.5 -1.7,-2.2 -2.4,-2.5 -5.2,-2.3 -2.9,0.2 -3.4,0 -4.4,-2 -1.3,-2.5 -4.8,-5 -7,-4.9 -0.8,0.1 -1.9,-0.3 -2.4,-0.7 -0.7,-0.6 -1.5,-0.6 -3.1,0.2 -2,1 -2.4,0.9 -5.1,-1.4 -4,-3.3 -4.6,-5.6 -2.8,-10.4 0.8,-2.1 1.9,-3.9 2.5,-4 0.6,0 1.4,-0.8 1.9,-1.7 1.1,-2.2 1.6,-2.1 2.9,0.6 1.5,2.9 3.8,2.8 4.7,-0.2 0.5,-1.8 1.2,-2.4 3.4,-2.9 1.5,-0.3 3.3,-0.9 4,-1.2 0.9,-0.4 1.4,0 1.8,1.7 0.5,2 1,2.3 3,2.1 1.3,-0.1 2.5,0.3 2.8,0.8 0.4,0.8 2.7,0.9 9.8,0.4 9.9,-0.6 10.8,-1 14.9,-5.3 1.7,-1.8 2.2,-2 4,-1.3 3.1,1.2 6,0.7 7,-1.2 0.5,-1 1.4,-1.5 2.1,-1.3 0.6,0.2 2.2,-0.2 3.4,-1 2.7,-1.6 5.6,-1.2 4.9,0.7 -0.2,0.7 -0.6,2 -0.7,2.9 -0.2,0.9 -0.9,2.5 -1.6,3.7 -0.7,1.2 -1.2,2.4 -1.2,2.8 0,0.4 -1,1.7 -2.2,2.9 -1.8,1.8 -2.1,2.6 -1.6,4.2 0.4,1.3 0.2,2.6 -0.8,4 -1.8,2.7 -1.6,5.1 0.4,6.8 1.7,1.4 2.3,3.3 1,3.4 -1.4,0.1 -0.7,2.3 1,3 2.3,1.1 2.3,4.2 0,5 -1.7,0.6 -1.8,1 -1.6,5.2 0.5,5 -0.2,5.9 -2.9,3.6 z"/>
	</defs>
		<use
				xlink:href="#SVGID_7_"
				style="clip-rule:evenodd;overflow:visible;fill:#ffffff;fill-rule:evenodd"
				id="use57"/>
		<clipPath
				id="SVGID_8_">
		<use
				xlink:href="#SVGID_7_"
				style="overflow:visible"
				id="use59"/>
	</clipPath>
		<rect
				x="292.60001"
				y="179.10001"
				class="st2"
				width="287.29999"
				height="324.20001"
				clip-path="url(#SVGID_8_)"
				id="rect62"/>
</g>
	<g
			id="g72"
			transform="translate(-14.399994,-13.5)">
	<path
			id="SVGID_6_"
			class="st3"
			d="m 401.2,561.3 2.7,19.4 H 416 v -16 c 0,-1.6 0.8,-3 2.5,-3 1.6,0 2.4,1.4 2.4,3 v 16.1 h 14.7 v -18.7 c 0,-3.8 -0.9,-6.6 -2.5,-8.8 -1.5,-2 -4.4,-3.5 -7.9,-3.5 -2.3,0 -4.6,0.8 -5.9,1.8 -0.8,0.6 -1.3,1.1 -2.1,1.8 -0.3,0.3 -1.8,1.9 -2,1.9 H 415 l 0.6,-4.9 h -14.4 z"/>
		<path
				id="SVGID_5_"
				class="st3"
				d="m 358.3,566.8 c 0,0.1 0.2,2 0.3,2.3 0.1,0.7 0.3,1.4 0.5,2 0.2,1 1,2.7 1.5,3.4 0.7,1.1 1.4,1.8 2.3,2.8 0.9,0.9 1.8,1.4 2.9,2.1 1.7,1.1 5.2,2.1 8,2 1.9,0 2.9,0 4.6,-0.3 1,-0.2 3.2,-0.7 3.9,-1 l 0.6,-12.3 c -1.8,0.9 -2.7,2.3 -5.6,2.3 -2,0 -3.2,-1.2 -3.9,-2.5 -0.8,-1.6 -0.3,-3.8 0.6,-4.8 1,-1 2.9,-1.9 4.8,-1.3 0.8,0.3 1.6,0.5 2.2,1 0.7,0.4 1.2,0.9 1.8,1.4 v -0.7 l -0.9,-6.5 0.9,-0.3 v -4.5 l -0.8,-0.5 c -1.3,-0.3 -2.4,-0.7 -3.9,-0.9 -1.1,-0.2 -3.2,-0.4 -4.4,-0.4 -4.7,0 -8.5,2 -10.9,4.4 -1.2,1.2 -2.5,2.8 -3.1,4.5 -0.4,0.9 -0.7,1.9 -1,2.9 -0.1,0.4 -0.4,3.3 -0.5,3.4 v 1.5 z"/>
		<polygon
				id="SVGID_4_"
				class="st3"
				points="384.1,563.1 387.7,588.6 387.9,588.6 402.5,584.1 402,580.8 399.3,561.3 398,552.2 398.1,552.1 384.1,556.4 383.2,556.6 "/>
		<rect
				id="SVGID_3_"
				x="437.79999"
				y="550.40002"
				class="st3"
				width="14.7"
				height="30.4"/>
		<path
				id="SVGID_2_"
				class="st3"
				d="m 383.3,551.4 0.8,0.5 c 0.8,0.4 1.8,0.7 2.9,0.7 h 0.4 c 2.2,0 4.8,-1.2 6.2,-2.1 0.2,-0.1 0.8,-0.7 1.1,-1 0.6,-0.5 0.5,-0.6 0.9,-1 0.3,-0.3 0.6,-0.8 0.8,-1.3 0.1,-0.3 0.5,-1.2 0.7,-1.5 l 0.3,-2.4 v -0.1 l -0.3,-2 h -0.1 0.1 c -0.1,-0.8 -0.8,-2 -1.1,-2.5 -0.5,-0.7 -1.3,-1.3 -2.1,-1.7 -1.8,-0.9 -4.5,-0.7 -6.3,0 -0.4,0.2 -0.9,0.4 -1.3,0.5 -0.5,0.2 -0.7,0.5 -1.2,0.7 -0.2,0.1 -1,0.7 -1.1,0.8 -0.1,0.1 -0.3,0.3 -0.5,0.5 -0.4,0.3 -0.2,0.2 -0.4,0.5 -1,1.1 -2.3,3.2 -2.3,5.3 0,0.7 0.1,1.4 0.2,1.9 0,0.5 0.4,1.1 0.4,1.6 0.3,1 1.5,1.9 1.9,2.6"/>
		<path
				id="SVGID_1_"
				class="st3"
				d="m 445.3,548.2 c 2.3,0 4.1,-0.7 5.6,-1.7 1.2,-0.8 2.4,-2.9 2.4,-4.9 v -0.5 c 0,-1.2 -0.1,-2 -0.5,-2.8 0.3,-0.1 -0.8,-1.6 -1,-1.8 -0.6,-0.6 -0.9,-0.9 -1.6,-1.4 -1.2,-0.8 -2.9,-1.2 -4.9,-1.2 -2.7,0 -4.3,0.7 -5.8,1.9 -1.4,1.2 -2.4,2.9 -2.3,5.3 0.1,4.4 3.3,7.1 8.1,7.1"/>
</g>
	<ellipse
			class="st1"
			cx="641.09998"
			cy="498.20001"
			rx="14.2"
			ry="14.3"
			id="ellipse74"/>
	<ellipse
			class="st1"
			cx="379.89999"
			cy="35.900002"
			rx="14.2"
			ry="14.3"
			id="ellipse76"/>
	<circle
			class="st1"
			cx="378.89999"
			cy="590"
			id="ellipse78"
			r="7.0999999"/>
	<g
			id="g130"
			transform="translate(-14.399994,-13.5)">
	<g
			id="g128">
		<path
				class="st1"
				d="m 89,579.5 c -2.3,-3.5 -3.4,-6.8 -3.2,-9.8 0.2,-3 1.8,-5.4 4.8,-7.3 3.1,-1.9 4.7,-2.9 7.8,-4.8 3,-1.9 5.8,-2.3 8.5,-1.2 2.6,1 5,3.1 7.1,6.4 0.1,0.1 0.1,0.1 0.2,0.2 2.1,3.2 3.1,6.2 3,9 -0.1,2.8 -1.6,5.3 -4.4,7.4 -1,-1.4 -1.5,-2.1 -2.4,-3.5 2.2,-1.6 3.4,-3.3 3.5,-5.1 0.2,-1.8 -0.5,-3.9 -2.1,-6.3 -0.1,-0.1 -0.1,-0.1 -0.2,-0.2 -1.6,-2.4 -3.2,-3.9 -4.9,-4.4 -1.7,-0.6 -3.7,-0.1 -6,1.3 -3.1,2 -4.6,2.9 -7.7,4.9 -2.3,1.5 -3.5,3.1 -3.7,5 -0.2,1.9 0.6,4.1 2.2,6.7 0.1,0.1 0.1,0.2 0.2,0.3 1.7,2.6 3.4,4.1 5.2,4.7 1.8,0.6 3.8,0 6,-1.5 1,1.4 1.5,2.1 2.5,3.5 -2.9,2.1 -5.7,2.7 -8.4,1.7 -2.8,-1 -5.3,-3.2 -7.6,-6.7 -0.3,-0.1 -0.4,-0.1 -0.4,-0.3 z"
				id="path80"/>
		<path
				class="st1"
				d="m 107.4,604.7 c 3.9,-3.2 5.9,-4.7 9.8,-7.9 2.2,-8 3.4,-11.9 6,-19.6 1,1.4 1.6,2.1 2.6,3.5 -2.1,6.1 -3.1,9.2 -4.9,15.5 0.1,0.2 0.2,0.2 0.3,0.4 6.4,-0.5 9.6,-0.8 15.9,-1.5 1.1,1.3 1.7,2 2.8,3.3 -7.9,0.9 -12,1.3 -20.1,1.8 -3.9,3.2 -5.8,4.8 -9.7,8 -1,-1.5 -1.6,-2.2 -2.7,-3.5 z"
				id="path82"/>
		<path
				class="st1"
				d="m 145.9,626.1 c 2.5,3.7 2.5,6.8 0.1,9.5 -0.1,0.1 -0.1,0.1 -0.2,0.2 -1.7,1.8 -3.8,2.6 -6.1,2.2 -2.3,-0.4 -4.8,-1.8 -7.3,-4.4 -3.9,-4 -5.8,-6.1 -9.5,-10.3 7.2,-6.6 14.4,-13.2 21.5,-19.8 3.1,3.5 4.6,5.2 7.8,8.5 2.3,2.4 3.7,4.7 4,6.9 0.4,2.2 -0.3,4.2 -1.9,5.8 -0.1,0.1 -0.2,0.2 -0.3,0.3 -2.1,2.2 -4.7,2.5 -7.9,0.7 0,0.2 -0.1,0.3 -0.2,0.4 z m 5.5,-4 c 1.1,-1.1 1.6,-2.4 1.4,-3.7 -0.2,-1.3 -1.1,-2.7 -2.6,-4.4 -2.1,-2.2 -3.2,-3.3 -5.2,-5.6 -2.9,2.7 -4.3,4.1 -7.2,6.8 2.1,2.3 3.2,3.5 5.4,5.8 1.6,1.7 3.1,2.7 4.4,2.9 1.3,0.2 2.5,-0.3 3.7,-1.5 -0.1,-0.2 0,-0.2 0.1,-0.3 z m -8.4,10.6 c 0.1,-0.1 0.1,-0.1 0.2,-0.2 1.2,-1.2 1.7,-2.5 1.5,-3.9 -0.2,-1.3 -1.1,-2.8 -2.8,-4.6 -2.6,-2.7 -3.9,-4.1 -6.4,-6.8 -3,2.9 -4.6,4.3 -7.6,7.1 2.6,2.9 3.9,4.3 6.6,7 1.7,1.8 3.2,2.7 4.6,2.9 1.3,0.3 2.6,-0.2 3.9,-1.5 z"
				id="path84"/>
		<path
				class="st1"
				d="m 180.6,642.2 c -5.3,-4.4 -7.9,-6.6 -13.1,-11.3 -2.7,3 -4,4.6 -6.7,7.6 4,3.6 6,5.3 10,8.8 -0.8,0.9 -1.1,1.4 -1.9,2.3 -4.1,-3.4 -6.1,-5.2 -10.1,-8.8 -2.7,3.1 -4.1,4.6 -6.8,7.7 5.5,5 8.3,7.4 14,12.1 -0.7,0.9 -1.1,1.4 -1.8,2.3 -7,-5.7 -10.5,-8.7 -17.2,-15 6.5,-7.2 13.1,-14.5 19.6,-21.7 6.2,5.8 9.4,8.5 15.8,13.8 -0.7,0.8 -1.1,1.3 -1.8,2.2 z"
				id="path86"/>
		<path
				class="st1"
				d="m 201.3,665.1 c -3,4.5 -7.2,5.2 -12.4,2 0,0.1 -0.1,0.1 -0.1,0.2 0.2,5.8 0.4,8.7 0.9,14.5 -1.5,-1 -2.3,-1.6 -3.8,-2.6 -0.4,-5.9 -0.5,-8.9 -0.7,-14.8 -1.7,-1.3 -2.6,-1.9 -4.3,-3.2 -2.8,3.7 -4.1,5.6 -6.9,9.3 -1.3,-1 -2,-1.5 -3.3,-2.5 5.9,-7.8 11.8,-15.6 17.7,-23.3 3.7,2.9 5.6,4.3 9.3,7 5.7,4.1 6.9,8.4 3.7,13.4 -0.1,-0.1 -0.1,0 -0.1,0 z m -3.1,-2.3 c 1.2,-1.8 1.6,-3.4 1.3,-4.7 -0.4,-1.3 -1.5,-2.7 -3.5,-4.1 -2.6,-1.9 -3.8,-2.8 -6.4,-4.7 -2.8,3.8 -4.2,5.7 -7,9.5 2.6,2 3.9,3 6.6,4.9 2,1.5 3.7,2.1 5.1,2.1 1.4,-0.1 2.7,-1 3.9,-2.8 -0.1,-0.1 0,-0.1 0,-0.2 z"
				id="path88"/>
		<path
				class="st1"
				d="m 205.5,692.5 c -3.4,-2.1 -5.7,-4.4 -6.8,-7 -1.1,-2.6 -0.8,-5.2 0.9,-7.9 1.3,0.9 2,1.3 3.4,2.2 -1.3,2 -1.6,3.8 -0.9,5.4 0.7,1.6 2.3,3.2 4.9,4.7 0.1,0.1 0.1,0.1 0.2,0.1 4.7,2.8 7.9,2.7 9.6,-0.2 0.3,-0.5 0.5,-1 0.6,-1.5 0.1,-0.5 0,-1 -0.2,-1.6 -0.2,-0.5 -0.4,-1 -0.6,-1.4 -0.2,-0.4 -0.5,-0.9 -1,-1.5 -0.5,-0.6 -0.9,-1 -1.2,-1.4 -0.3,-0.3 -0.8,-0.8 -1.4,-1.5 -0.6,-0.7 -1.1,-1.1 -1.3,-1.3 -1.1,-1.2 -2,-2.2 -2.6,-2.9 -0.6,-0.8 -1.2,-1.8 -1.9,-3 -0.7,-1.2 -1,-2.4 -0.9,-3.5 0.1,-1.1 0.4,-2.3 1.1,-3.4 1.3,-2 3.1,-3 5.4,-3.1 2.3,-0.1 4.8,0.7 7.5,2.3 0.1,0.1 0.1,0.1 0.2,0.1 2.9,1.8 4.9,3.8 5.9,6.2 1,2.4 0.8,4.9 -0.8,7.7 -1.3,-0.8 -2,-1.1 -3.3,-1.9 1.2,-2.1 1.4,-3.9 0.8,-5.3 -0.6,-1.5 -2,-2.9 -4.1,-4.2 -0.1,-0.1 -0.1,-0.1 -0.2,-0.1 -3.8,-2.3 -6.5,-2.2 -8.1,0.4 -0.2,0.3 -0.3,0.6 -0.4,1 -0.1,0.3 -0.2,0.7 -0.2,0.9 0,0.3 0,0.6 0.1,1 0.1,0.4 0.2,0.7 0.3,0.9 0.1,0.2 0.2,0.6 0.5,1 0.3,0.4 0.5,0.7 0.6,0.9 0.1,0.2 0.4,0.5 0.8,0.9 0.4,0.4 0.6,0.7 0.8,0.9 0.1,0.1 0.4,0.5 0.9,0.9 0.4,0.5 0.7,0.8 0.9,0.9 2.5,2.6 4.2,4.5 5,5.8 1.7,2.7 1.9,5.3 0.6,7.7 -1.2,2.2 -3.1,3.4 -5.7,3.5 -2.6,0.1 -5.6,-0.8 -8.8,-2.7 -0.4,0.1 -0.5,0.1 -0.6,0 z"
				id="path90"/>
		<path
				class="st1"
				d="m 254.5,688 c -6.1,-2.7 -9.1,-4.2 -15,-7.2 -1.8,3.6 -2.7,5.4 -4.6,9.1 4.6,2.3 6.9,3.5 11.5,5.6 -0.5,1.1 -0.7,1.6 -1.2,2.7 -4.7,-2.2 -7,-3.3 -11.6,-5.7 -1.8,3.7 -2.8,5.5 -4.6,9.2 6.4,3.3 9.6,4.8 16.1,7.7 -0.5,1.1 -0.7,1.6 -1.2,2.7 -8,-3.6 -12,-5.5 -19.8,-9.6 4.5,-8.7 9,-17.4 13.5,-26.1 7.2,3.8 10.8,5.6 18.2,8.9 -0.6,1.1 -0.8,1.6 -1.3,2.7 z"
				id="path92"/>
		<path
				class="st1"
				d="m 260.5,719.6 c -3.5,-1.4 -5.9,-3.3 -7.3,-5.7 -1.3,-2.4 -1.3,-5.3 0.1,-8.6 1.4,-3.4 2.2,-5.1 3.6,-8.5 1.4,-3.3 3.4,-5.3 5.9,-6.1 2.5,-0.8 5.4,-0.6 8.6,0.7 0.1,0 0.1,0.1 0.2,0.1 3.2,1.3 5.5,3 6.8,5.3 1.3,2.3 1.4,5.1 0.2,8.5 -1.4,-0.5 -2.1,-0.8 -3.6,-1.3 0.9,-2.6 1,-4.6 0.2,-6.1 -0.8,-1.5 -2.3,-2.7 -4.7,-3.7 -0.1,0 -0.1,-0.1 -0.2,-0.1 -2.4,-0.9 -4.3,-1.1 -5.9,-0.5 -1.6,0.6 -2.9,2.2 -3.9,4.7 -1.4,3.4 -2.1,5.1 -3.5,8.5 -1,2.5 -1.2,4.6 -0.4,6.2 0.8,1.6 2.5,2.9 5,3.9 0.1,0 0.2,0.1 0.3,0.1 2.5,1 4.7,1.2 6.3,0.5 1.6,-0.6 2.9,-2.2 3.8,-4.8 1.5,0.5 2.2,0.8 3.7,1.3 -1.2,3.4 -3,5.5 -5.6,6.4 -2.6,0.9 -5.7,0.7 -9.2,-0.7 -0.2,0 -0.3,0 -0.4,-0.1 z"
				id="path94"/>
		<path
				class="st1"
				d="m 291.9,730.2 c -3.6,-1 -6.1,-2.7 -7.6,-4.8 -1.5,-2.2 -1.7,-4.9 -0.6,-8.1 2.4,-7.6 3.6,-11.3 6,-18.9 1.4,0.5 2.1,0.7 3.5,1.1 -2.3,7.6 -3.5,11.4 -5.8,18.9 -0.7,2.4 -0.7,4.3 0.2,5.7 0.9,1.4 2.6,2.5 5.2,3.2 0.1,0 0.2,0 0.3,0.1 2.6,0.7 4.6,0.7 6.1,0 1.5,-0.7 2.5,-2.3 3.2,-4.8 2,-7.7 3,-11.5 5,-19.2 1.4,0.4 2.1,0.6 3.6,0.9 -1.9,7.7 -2.9,11.5 -4.8,19.2 -0.8,3.3 -2.4,5.4 -4.8,6.5 -2.4,1.1 -5.4,1.1 -9,0.1 -0.4,0.2 -0.4,0.2 -0.5,0.1 z"
				id="path96"/>
		<path
				class="st1"
				d="m 339.5,719.5 c -0.8,5.3 -4.2,7.8 -10.2,7.2 0,0.1 0,0.1 0,0.2 2.5,5.1 3.8,7.7 6.6,12.7 -1.8,-0.3 -2.6,-0.4 -4.4,-0.7 -2.7,-5.2 -4,-7.8 -6.5,-13 -2,-0.4 -3.1,-0.6 -5.1,-1 -1,4.5 -1.4,6.8 -2.4,11.3 -1.6,-0.3 -2.3,-0.5 -3.9,-0.8 2.1,-9.6 4.2,-19.1 6.4,-28.7 4.4,1 6.6,1.4 11,2.3 6.6,1.2 9.5,4.6 8.6,10.4 -0.1,0 -0.1,0 -0.1,0.1 z m -3.6,-0.8 c 0.4,-2.2 0.1,-3.7 -0.8,-4.8 -0.9,-1 -2.4,-1.7 -4.7,-2.2 -3,-0.6 -4.5,-0.9 -7.5,-1.5 -1,4.6 -1.5,7 -2.4,11.6 3.1,0.7 4.6,1 7.8,1.5 2.4,0.4 4.1,0.3 5.3,-0.4 1.2,-0.7 1.9,-2.1 2.3,-4.2 0,0.1 0,0.1 0,0 z"
				id="path98"/>
		<path
				class="st1"
				d="m 344.4,740.8 c 1.3,-9.7 2.6,-19.4 3.9,-29.1 1.5,0.2 2.2,0.3 3.6,0.5 -1.2,9.7 -2.4,19.5 -3.6,29.2 -1.6,-0.3 -2.3,-0.4 -3.9,-0.6 z"
				id="path100"/>
		<path
				class="st1"
				d="m 381,714.5 c 0,1.2 -0.1,1.8 -0.1,3 -3.9,-0.1 -5.9,-0.2 -9.7,-0.5 -0.7,10.5 -1,15.8 -1.7,26.4 -1.6,-0.1 -2.4,-0.2 -4,-0.3 0.8,-10.5 1.2,-15.8 2,-26.3 -3.9,-0.3 -5.8,-0.5 -9.7,-0.9 0.1,-1.2 0.2,-1.8 0.3,-3 9.1,0.9 13.7,1.2 22.9,1.6 z"
				id="path102"/>
		<path
				class="st1"
				d="m 394,744.1 c 0,-5.1 0,-7.6 0,-12.7 -4.4,-6.7 -6.5,-10 -10.4,-16.8 1.6,0 2.4,0.1 3.9,0.1 3.1,5.4 4.8,8.1 8.1,13.5 0.2,0 0.3,0 0.5,0 3.3,-5.4 4.9,-8.1 8,-13.6 1.6,0 2.4,-0.1 3.9,-0.1 -3.9,6.9 -5.9,10.3 -10.2,17 0.1,5.1 0.1,7.6 0.2,12.7 -1.6,-0.1 -2.4,-0.1 -4,-0.1 z"
				id="path104"/>
		<path
				class="st1"
				d="m 430,742.3 c -1,-9.8 -1.9,-19.5 -2.9,-29.3 2.2,-0.2 3.3,-0.3 5.5,-0.6 5.9,9.3 9,13.9 15.5,23 0.2,0 0.3,0 0.5,-0.1 -1.5,-9.8 -2.2,-14.7 -3.7,-24.5 1.4,-0.2 2.1,-0.3 3.5,-0.6 1.6,9.7 3.2,19.3 4.7,29 -2.3,0.4 -3.5,0.6 -5.8,0.9 -6.6,-9.1 -9.7,-13.7 -15.6,-23 -0.2,0 -0.3,0 -0.4,0 1.1,9.9 1.6,14.8 2.7,24.7 -1.7,0.2 -2.5,0.3 -4,0.5 z"
				id="path106"/>
		<path
				class="st1"
				d="m 482.4,733.1 c -2,-3.2 -3.1,-4.9 -5.1,-8.1 -4.6,1.1 -6.8,1.6 -11.4,2.6 -0.4,3.8 -0.7,5.7 -1.2,9.5 -1.7,0.3 -2.5,0.5 -4.2,0.8 1.6,-10.2 2.9,-20.5 3.9,-30.8 2.2,-0.5 3.3,-0.7 5.5,-1.2 5.2,8.9 10.8,17.6 16.5,26.2 -1.5,0.4 -2.4,0.6 -4,1 z m -16.1,-8.6 c 3.8,-0.8 5.7,-1.2 9.5,-2.1 -3.1,-5.1 -4.6,-7.7 -7.6,-12.9 -0.2,0 -0.3,0.1 -0.4,0.1 -0.6,5.9 -0.9,8.9 -1.5,14.9 z"
				id="path108"/>
		<path
				class="st1"
				d="m 501.6,696.9 c 0.4,1.1 0.6,1.7 0.9,2.8 -3.7,1.3 -5.6,1.9 -9.4,3 3.1,10.1 4.6,15.2 7.7,25.3 -1.5,0.5 -2.3,0.7 -3.8,1.2 -3,-10.1 -4.4,-15.2 -7.4,-25.4 -3.8,1.1 -5.7,1.6 -9.5,2.6 -0.3,-1.2 -0.5,-1.7 -0.8,-2.9 9.1,-2.3 13.5,-3.6 22.3,-6.6 z"
				id="path110"/>
		<path
				class="st1"
				d="m 517.3,722.5 c -3.3,-9.2 -6.6,-18.5 -9.9,-27.7 1.4,-0.5 2.1,-0.8 3.5,-1.3 3.4,9.2 6.8,18.4 10.2,27.6 -1.6,0.6 -2.3,0.9 -3.8,1.4 z"
				id="path112"/>
		<path
				class="st1"
				d="m 541.2,713.4 c -3.5,1.5 -6.5,1.9 -9.2,1.1 -2.6,-0.8 -4.6,-2.8 -5.9,-6.1 -1.4,-3.4 -2,-5.1 -3.4,-8.6 -1.3,-3.3 -1.3,-6.1 -0.1,-8.5 1.2,-2.4 3.4,-4.2 6.6,-5.6 0.1,0 0.1,-0.1 0.2,-0.1 3.2,-1.4 6,-1.8 8.6,-1.1 2.6,0.7 4.6,2.6 6.2,5.8 1.6,3.3 2.4,5 4,8.3 1.5,3.2 1.7,6.1 0.5,8.6 -1.2,2.5 -3.6,4.5 -7,6.1 -0.3,0 -0.4,0 -0.5,0.1 z m -1.1,-2.7 c 0.1,0 0.1,-0.1 0.2,-0.1 2.5,-1.1 4.1,-2.5 4.8,-4.1 0.7,-1.6 0.5,-3.7 -0.6,-6.1 -1.6,-3.4 -2.4,-5.1 -3.9,-8.4 -1.1,-2.4 -2.5,-3.9 -4.1,-4.4 -1.6,-0.5 -3.6,-0.2 -5.9,0.8 -0.1,0 -0.1,0.1 -0.2,0.1 -2.3,1 -3.9,2.3 -4.6,3.9 -0.7,1.5 -0.6,3.6 0.5,6.1 1.4,3.4 2.1,5.2 3.5,8.6 1,2.5 2.4,4.1 4.1,4.6 1.6,0.4 3.7,0.1 6.2,-1 z"
				id="path114"/>
		<path
				class="st1"
				d="m 560.9,703.4 c -4.4,-8.7 -8.9,-17.4 -13.3,-26.2 2,-1 3,-1.6 4.9,-2.6 8.9,6.5 13.5,9.6 23,15.5 0.2,-0.1 0.3,-0.1 0.4,-0.2 -5,-8.6 -7.5,-12.9 -12.4,-21.5 1.3,-0.7 1.9,-1.1 3.1,-1.9 5,8.4 10,16.8 15,25.2 -2.1,1.3 -3.1,1.9 -5.2,3.1 -9.5,-5.9 -14.1,-9 -23.1,-15.5 -0.2,0.1 -0.2,0.1 -0.4,0.2 4.6,8.8 6.9,13.2 11.5,22 -1.4,0.9 -2.1,1.2 -3.5,1.9 z"
				id="path116"/>
		<path
				class="st1"
				d="m 607.4,674.6 c -3.1,-2.2 -4.7,-3.3 -7.7,-5.6 -3.9,2.8 -5.9,4.2 -9.9,6.9 1,3.7 1.4,5.6 2.3,9.3 -1.5,1 -2.2,1.5 -3.7,2.4 -2.2,-10.1 -4.6,-20.3 -7.4,-30.3 1.9,-1.3 2.9,-2 4.8,-3.3 8.2,6.2 16.6,12.2 25.2,17.9 -1.5,1.2 -2.2,1.7 -3.6,2.7 z m -18.5,-1.7 c 3.3,-2.2 5,-3.4 8.2,-5.7 -4.8,-3.6 -7.2,-5.4 -11.9,-9.1 -0.2,0.1 -0.2,0.2 -0.4,0.3 1.7,5.7 2.5,8.6 4.1,14.5 z"
				id="path118"/>
		<path
				class="st1"
				d="m 618.7,662.2 c 5.1,-4.1 7.6,-6.2 12.5,-10.6 0.8,0.9 1.2,1.3 1.9,2.2 -6.2,5.5 -9.4,8.2 -15.9,13.3 -5.9,-7.8 -11.9,-15.5 -17.8,-23.3 1.2,-0.9 1.8,-1.4 3,-2.4 6.5,8.4 9.8,12.5 16.3,20.8 z"
				id="path120"/>
		<path
				class="st1"
				d="m 650.4,633.3 c 4.7,-4.8 7,-7.3 11.5,-12.3 0.9,0.8 1.3,1.2 2.2,2 -5.7,6.4 -8.6,9.5 -14.5,15.4 -6.8,-7 -13.6,-14 -20.4,-21 1.1,-1.1 1.7,-1.7 2.8,-2.8 7.3,7.5 11,11.3 18.4,18.7 z"
				id="path122"/>
		<path
				class="st1"
				d="m 682.4,600.6 c -3.7,-1.2 -5.5,-1.8 -9.1,-3 -3.2,4.1 -4.8,6.1 -8,10 1.9,3.4 2.9,5 4.7,8.4 -1.2,1.4 -1.8,2.1 -3,3.6 -4.8,-9.3 -9.8,-18.4 -15.1,-27.4 1.6,-1.9 2.3,-2.9 3.9,-4.8 9.7,3.5 19.6,6.6 29.5,9.5 -1.2,1.5 -1.7,2.2 -2.9,3.7 z m -18.7,4.3 c 2.7,-3.3 4,-4.9 6.6,-8.3 -5.7,-2 -8.5,-3 -14.1,-5.1 -0.1,0.2 -0.2,0.2 -0.3,0.4 3.2,5.2 4.8,7.8 7.8,13 z"
				id="path124"/>
		<path
				class="st1"
				d="m 688.4,565.9 c 3.2,-3.5 6.3,-4.3 9.3,-2.5 0.1,0.1 0.2,0.1 0.3,0.2 2.1,1.3 3.3,3.2 3.3,5.7 0.1,2.5 -0.9,5.4 -3,8.5 -3.2,4.9 -4.8,7.4 -8.2,12.1 -7.9,-5.7 -15.8,-11.4 -23.6,-17.1 2.7,-3.9 4.1,-5.9 6.7,-9.9 1.9,-3 3.9,-4.9 6,-5.8 2.1,-0.9 4.1,-0.8 6.1,0.5 0.2,0.1 0.2,0.1 0.4,0.2 2.6,1.6 3.4,4.3 2.2,7.9 0.4,0 0.4,0.1 0.5,0.2 z m -4.9,-4.6 c -1.3,-0.9 -2.6,-1 -3.9,-0.5 -1.2,0.5 -2.5,1.8 -3.8,3.8 -1.8,2.7 -2.7,4 -4.5,6.7 3.2,2.3 4.9,3.4 8.1,5.7 1.9,-2.7 2.8,-4.1 4.6,-6.9 1.4,-2.1 2,-3.9 2,-5.2 -0.1,-1.4 -0.8,-2.5 -2.2,-3.4 -0.2,-0.1 -0.2,-0.2 -0.3,-0.2 z m 12,6 c -0.1,-0.1 -0.2,-0.1 -0.3,-0.2 -1.4,-0.9 -2.8,-1.1 -4.1,-0.6 -1.3,0.5 -2.6,1.9 -3.9,4 -2.1,3.3 -3.2,4.9 -5.4,8.1 3.4,2.4 5.1,3.6 8.5,6 2.3,-3.3 3.4,-5 5.6,-8.4 1.4,-2.2 2.1,-4 2,-5.4 0,-1.4 -0.8,-2.6 -2.4,-3.5 z"
				id="path126"/>
	</g>
</g>
	<g
			id="g180"
			transform="translate(-14.399994,-13.5)">
	<path
			class="st1"
			d="m 871.4,211.9 h 0.8 c 30.5,0 45.8,16.7 45.8,50.2 h -9.9 c 0,-14.6 -3,-25 -9,-31.4 -6,-6.4 -15,-9.6 -26.9,-9.6 h -0.8 c -12,0 -21,3.2 -27,9.6 -6,6.4 -8.9,16.8 -8.9,31.4 V 309 c 0,14.6 3,25.1 9,31.5 6,6.4 15,9.7 26.9,9.7 h 0.8 c 11.9,0 20.9,-3.2 26.9,-9.7 6,-6.4 9,-16.9 9,-31.5 h 9.9 c 0,33.6 -15.3,50.4 -45.8,50.4 h -0.8 c -30.5,0 -45.8,-16.8 -45.8,-50.4 v -46.8 c 0,-33.5 15.3,-50.3 45.8,-50.3 z"
			id="path132"/>
		<path
				class="st1"
				d="m 939.4,214 38.4,70.8 h 1.7 l 38.8,-70.8 h 10.3 l -44.9,81.3 v 62 h -9.9 v -62 L 929.1,214 Z"
				id="path134"/>
		<path
				class="st1"
				d="m 1093.3,214 c 12.9,0 22.7,3.1 29.4,9.3 6.7,6.2 10.1,14.9 10.1,26.1 v 2.7 c 0,15.5 -6.6,25.7 -19.7,30.5 v 1.7 c 16.7,3.8 25,14.6 25,32.6 v 1.9 c 0,12.3 -3.3,21.8 -10,28.5 -6.7,6.7 -16.3,10 -29.1,10 h -49.6 V 214 Z m -34,9.3 v 56.5 h 34 c 19.7,0 29.6,-9.2 29.6,-27.5 V 250 c 0,-17.8 -9.9,-26.7 -29.6,-26.7 z m 0,65.7 v 59 h 39.3 c 10.1,0 17.5,-2.4 22.4,-7.1 4.8,-4.8 7.2,-12.2 7.2,-22.3 v -1.5 c 0,-18.8 -9.9,-28.1 -29.6,-28.1 z"
				id="path136"/>
		<path
				class="st1"
				d="m 1166.2,214 h 82.3 v 9.2 H 1176 v 57.5 h 54.4 v 9.2 H 1176 v 58 h 72.5 v 9.2 h -82.3 z"
				id="path138"/>
		<path
				class="st1"
				d="m 1272.1,214 h 47.3 c 26.7,0 40.1,13.9 40.1,41.6 v 0.4 c 0,27.3 -13,41.2 -39.1,41.6 v 1.3 l 36.3,58.4 h -11.5 L 1308,297.7 h -26 v 59.6 h -9.9 z m 9.8,74.4 h 37.4 c 10.2,0 17.8,-2.3 22.8,-7 5,-4.7 7.5,-13.1 7.5,-25.3 v -0.4 c 0,-12 -2.5,-20.4 -7.5,-25.2 -5,-4.8 -12.6,-7.1 -22.8,-7.1 h -37.4 z"
				id="path140"/>
		<path
				class="st1"
				d="m 1373.9,313.6 h 9.9 c 0,13.3 3.2,22.7 9.7,28.2 6.4,5.5 16.2,8.3 29.2,8.3 h 1 c 11.6,0 20.5,-2.4 26.8,-7.2 6.2,-4.8 9.3,-11.9 9.3,-21.1 0,-2.9 -0.4,-5.6 -1,-8.1 -0.7,-2.4 -1.5,-4.5 -2.4,-6.3 -0.9,-1.7 -2.3,-3.4 -4.2,-5 -1.9,-1.6 -3.6,-2.9 -5,-3.9 -1.5,-1 -3.5,-2.1 -6.2,-3.3 -2.7,-1.2 -4.8,-2 -6.3,-2.5 -1.5,-0.5 -3.9,-1.3 -6.9,-2.4 l -6.7,-2.1 c -0.8,-0.3 -2.8,-0.9 -5.8,-1.9 -3,-1 -5.4,-1.7 -7,-2.3 -1.7,-0.6 -4,-1.5 -7,-2.8 -3,-1.3 -5.4,-2.6 -7.2,-3.9 -1.8,-1.3 -3.9,-2.9 -6.2,-5 -2.3,-2.1 -4.1,-4.3 -5.5,-6.5 -1.3,-2.2 -2.5,-5 -3.4,-8.2 -0.9,-3.2 -1.4,-6.6 -1.4,-10.3 0,-11.1 3.7,-19.8 11.2,-26.1 7.5,-6.4 17.7,-9.6 30.8,-9.6 h 1 c 13.9,0 25,3.7 33.3,11 8.3,7.3 12.5,18.9 12.5,34.8 h -9.9 c 0,-24.4 -12,-36.5 -35.9,-36.5 h -1 c -21.4,0 -32.1,8.8 -32.1,26.5 0,2.7 0.3,5.2 1,7.6 0.7,2.4 1.5,4.4 2.4,6.1 0.9,1.7 2.3,3.3 4.2,4.8 1.9,1.5 3.5,2.8 4.9,3.8 1.4,1 3.4,2 6.1,3.1 2.7,1.1 4.7,1.9 6.2,2.4 1.5,0.5 3.7,1.2 6.7,2.2 3,1 5.1,1.7 6.2,2.1 1,0.3 2.9,0.9 5.9,1.8 2.9,0.9 5.3,1.7 7.1,2.3 1.8,0.6 4.2,1.6 7.2,2.9 3,1.3 5.5,2.7 7.4,4 1.9,1.3 4,3 6.4,5.1 2.4,2.1 4.2,4.3 5.6,6.7 1.3,2.4 2.5,5.3 3.5,8.6 1,3.4 1.5,7 1.5,10.9 0,11.6 -4.2,20.8 -12.6,27.5 -8.4,6.7 -19.5,10.1 -33.4,10.1 h -1 c -32.7,0 -48.9,-15.3 -48.9,-45.8 z"
				id="path142"/>
		<path
				class="st1"
				d="m 1495.5,214 h 82.3 v 9.2 h -72.5 v 57.5 h 54.4 v 9.2 h -54.4 v 58 h 72.5 v 9.2 h -82.3 z"
				id="path144"/>
		<path
				class="st1"
				d="m 1639.5,211.9 h 0.8 c 30.5,0 45.8,16.7 45.8,50.2 h -9.9 c 0,-14.6 -3,-25 -9,-31.4 -6,-6.4 -15,-9.6 -26.9,-9.6 h -0.8 c -12,0 -21,3.2 -27,9.6 -6,6.4 -8.9,16.8 -8.9,31.4 V 309 c 0,14.6 3,25.1 9,31.5 6,6.4 15,9.7 26.9,9.7 h 0.8 c 11.9,0 20.9,-3.2 26.9,-9.7 6,-6.4 9,-16.9 9,-31.5 h 9.9 c 0,33.6 -15.3,50.4 -45.8,50.4 h -0.8 c -30.5,0 -45.8,-16.8 -45.8,-50.4 v -46.8 c 0.1,-33.5 15.3,-50.3 45.8,-50.3 z"
				id="path146"/>
		<path
				class="st1"
				d="m 1715.1,214 h 9.9 v 96.6 c 0,14 2.9,24.1 8.6,30.2 5.7,6.2 14.5,9.2 26.3,9.2 h 1 c 11.8,0 20.5,-3.1 26.3,-9.2 5.7,-6.2 8.6,-16.2 8.6,-30.2 V 214 h 9.9 v 96.6 c 0,32.5 -14.9,48.7 -44.7,48.7 h -1 c -29.8,0 -44.7,-16.2 -44.7,-48.7 V 214 Z"
				id="path148"/>
		<path
				class="st1"
				d="m 1840.1,214 h 47.3 c 26.7,0 40.1,13.9 40.1,41.6 v 0.4 c 0,27.3 -13,41.2 -39.1,41.6 v 1.3 l 36.3,58.4 h -11.5 L 1876,297.7 h -26 v 59.6 h -9.9 z m 9.9,74.4 h 37.4 c 10.2,0 17.8,-2.3 22.8,-7 5,-4.7 7.5,-13.1 7.5,-25.3 v -0.4 c 0,-12 -2.5,-20.4 -7.5,-25.2 -5,-4.8 -12.6,-7.1 -22.8,-7.1 H 1850 Z"
				id="path150"/>
		<path
				class="st1"
				d="M 1952.4,357.3 V 214 h 9.9 v 143.2 h -9.9 z"
				id="path152"/>
		<path
				class="st1"
				d="m 1981.4,214 h 95.5 v 9.2 h -42.8 v 134 h -9.9 v -134 h -42.8 z"
				id="path154"/>
		<path
				class="st1"
				d="m 2090.8,214 38.4,70.8 h 1.7 l 38.8,-70.8 h 10.3 l -44.9,81.3 v 62 h -9.9 v -62 L 2080.5,214 Z"
				id="path156"/>
		<path
				class="st1"
				d="m 847.2,412 60.5,131.5 h 1.5 V 412 h 9.9 V 555.2 H 902.9 L 842.4,423.7 h -1.5 V 555.2 H 831 V 412 Z"
				id="path158"/>
		<path
				class="st1"
				d="m 943.4,555.2 42,-143.2 h 15.8 l 41.8,143.2 h -10.7 l -13.4,-47.3 h -51 l -13.7,47.3 z m 72.7,-56.5 -22,-77.1 h -1.5 l -22.3,77.1 z"
				id="path160"/>
		<path
				class="st1"
				d="m 1036.4,412 h 95.5 v 9.2 h -42.8 v 134 h -9.9 v -134 h -42.8 z"
				id="path162"/>
		<path
				class="st1"
				d="M 1151.1,555.2 V 412 h 9.9 v 143.2 z"
				id="path164"/>
		<path
				class="st1"
				d="m 1237.6,409.9 h 0.8 c 30.5,0 45.8,16.7 45.8,50.2 v 46.8 c 0,33.6 -15.3,50.4 -45.8,50.4 h -0.8 c -30.5,0 -45.8,-16.8 -45.8,-50.4 v -46.8 c 0,-33.5 15.3,-50.2 45.8,-50.2 z m -35.9,97 c 0,14.7 3,25.2 8.9,31.6 5.9,6.4 14.9,9.6 27,9.6 h 0.8 c 11.9,0 20.9,-3.2 26.9,-9.6 6,-6.4 9,-16.9 9,-31.6 v -47.3 c 0,-14.4 -3,-24.8 -9,-31.1 -6,-6.3 -15,-9.5 -26.9,-9.5 h -0.8 c -12,0 -21,3.1 -27,9.5 -6,6.3 -8.9,16.7 -8.9,31.1 z"
				id="path166"/>
		<path
				class="st1"
				d="m 1331.3,412 60.5,131.5 h 1.5 V 412 h 9.9 V 555.2 H 1387 l -60.5,-131.5 h -1.5 v 131.5 h -9.9 V 412 Z"
				id="path168"/>
		<path
				class="st1"
				d="m 1427.4,555.2 42,-143.2 h 15.8 l 41.8,143.2 h -10.7 l -13.4,-47.3 h -51 l -13.7,47.3 z m 72.7,-56.5 -22,-77.1 h -1.5 l -22.3,77.1 z"
				id="path170"/>
		<path
				class="st1"
				d="m 1561.2,546 h 64.7 v 9.2 h -74.6 V 412 h 9.9 z"
				id="path172"/>
		<path
				class="st1"
				d="m 1703.8,546 h 64.7 v 9.2 h -74.6 V 412 h 9.9 z"
				id="path174"/>
		<path
				class="st1"
				d="m 1777.7,555.2 42,-143.2 h 15.8 l 41.8,143.2 h -10.7 l -13.4,-47.3 h -51 l -13.7,47.3 z m 72.7,-56.5 -22,-77.1 h -1.5 l -22.3,77.1 z"
				id="path176"/>
		<path
				class="st1"
				d="m 1945.5,412 c 12.9,0 22.7,3.1 29.4,9.3 6.7,6.2 10.1,14.9 10.1,26.1 v 2.7 c 0,15.5 -6.6,25.7 -19.7,30.5 v 1.7 c 16.7,3.8 25,14.6 25,32.6 v 1.9 c 0,12.3 -3.3,21.8 -10,28.5 -6.7,6.7 -16.3,10 -29.1,10 h -49.6 V 412 Z m -34,9.2 v 56.5 h 34 c 19.7,0 29.6,-9.2 29.6,-27.5 v -2.3 c 0,-17.8 -9.9,-26.7 -29.6,-26.7 z m 0,65.8 v 59 h 39.3 c 10.1,0 17.5,-2.4 22.4,-7.1 4.8,-4.8 7.2,-12.2 7.2,-22.3 v -1.5 c 0,-18.8 -9.9,-28.1 -29.6,-28.1 z"
				id="path178"/>
</g>
	<g
			id="g184"
			transform="translate(-14.399994,-13.5)">
	<rect
			x="130.7"
			y="201.3"
			class="st1"
			width="1.8"
			height="314.10001"
			id="rect182"/>
</g>
	<ellipse
			class="st1"
			cx="116.8"
			cy="188.60001"
			rx="14.2"
			ry="14.3"
			id="ellipse186"/>
	<ellipse
			class="st1"
			cx="117.20001"
			cy="498"
			rx="14.2"
			ry="14.3"
			id="ellipse188"/>
</svg>
